<?xml version="1.0" encoding="UTF-8"?>
<!DOCTYPE svg PUBLIC "-//W3C//DTD SVG 1.1//EN" "http://www.w3.org/Graphics/SVG/1.1/DTD/svg11.dtd">
<!-- Creator: CorelDRAW -->
<svg xmlns="http://www.w3.org/2000/svg" xml:space="preserve" width="210mm" height="297mm" version="1.1" style="shape-rendering:geometricPrecision; text-rendering:geometricPrecision; image-rendering:optimizeQuality; fill-rule:evenodd; clip-rule:evenodd"
viewBox="0 0 21000 29700"
 xmlns:xlink="http://www.w3.org/1999/xlink"
 xmlns:xodm="http://www.corel.com/coreldraw/odm/2003">
 <defs>
  <style type="text/css">
   <![CDATA[
    .str0 {stroke:black;stroke-width:9;stroke-linejoin:bevel;stroke-miterlimit:22.9256}
    .fil0 {fill:none}
   ]]>
  </style>
 </defs>
 <g id="Слой_x0020_1">
  <metadata id="CorelCorpID_0Corel-Layer"/>
  <path class="fil0 str0" d="M11924.57 14459.48c0,0 0,-279.74 0,-279.74 0,0 -242.2,-139.88 -242.2,-139.88 0,0 -98.06,56.55 -98.06,56.55 0,0 242.32,139.88 242.32,139.88 0,0 0,279.84 0,279.84 0,0 97.94,-56.65 97.94,-56.65z"/>
  <path class="fil0 str0" d="M11786.35 14372.77c0,0 0,-113.22 0,-113.22 0,0 -242.33,-139.87 -242.33,-139.87 0,0 -242.32,139.87 -242.32,139.87 0,0 0,113.22 0,113.22 0,0 242.32,-139.87 242.32,-139.87 0,0 242.33,139.87 242.33,139.87z"/>
  <path class="fil0 str0" d="M11399.76 14755.59c0,0 0,-279.75 0,-279.75 0,0 242.33,-139.98 242.33,-139.98 0,0 -98.07,-56.56 -98.07,-56.56 0,0 -242.32,139.88 -242.32,139.88 0,0 0,279.85 0,279.85 0,0 98.06,56.56 98.06,56.56z"/>
  <path class="fil0 str0" d="M11538.11 14442.42c0,0 -98.07,56.56 -98.07,56.56 0,0 0,279.87 0,279.87 0,0 242.33,139.86 242.33,139.86 0,0 97.95,-56.55 97.95,-56.55 0,0 -242.21,-139.99 -242.21,-139.99 0,0 0,-279.75 0,-279.75z"/>
  <path class="fil0 str0" d="M11578.26 14699.04c0,0 242.33,139.87 242.33,139.87 0,0 242.33,-139.87 242.33,-139.87 0,0 0,-113.22 0,-113.22 0,0 -242.33,139.87 -242.33,139.87 0,0 -242.33,-139.87 -242.33,-139.87 0,0 0,113.22 0,113.22z"/>
  <path class="fil0 str0" d="M12062.92 14539.29c0,0 0,-279.74 0,-279.74 0,0 -98.07,-56.66 -98.07,-56.66 0,0 0,279.85 0,279.85 0,0 -242.33,139.88 -242.33,139.88 0,0 98.07,56.66 98.07,56.66 0,0 242.33,-139.99 242.33,-139.99z"/>
  <path class="fil0 str0" d="M8725.02 14447.36c0,0 0,-74.52 0,-74.52 0,-11.64 -6.07,-17.71 -18.21,-18.21 0,0 -389.55,0 -389.55,0 0.25,-74.14 37.45,-111.22 111.58,-111.22 0,0 296.56,0 296.56,0 73.89,0 110.84,37.2 110.84,111.6 0,0 0,92.35 0,92.35 0,0 -111.22,0 -111.22,0z"/>
  <path class="fil0 str0" d="M8836.62 14558.57c0,0 0,92.23 0,92.23 -0.26,74.39 -37.33,111.59 -111.22,111.59 0,0 -296.56,0.38 -296.56,0.38 -74.13,0 -111.2,-37.07 -111.2,-111.21 0,0 -0.38,-204.2 -0.38,-204.2 0,0 111.2,0 111.2,0 0,0 0.38,185.35 0.38,185.35 0,12.27 6.07,18.47 18.09,18.47 0,0 259.88,0 259.88,0 12.14,0 18.21,-6.2 18.21,-18.47 0,0 0,-74.14 0,-74.14 0,0 111.6,0 111.6,0z"/>
  <path class="fil0 str0" d="M9058.9 14762.01c0,0 -111.21,0.38 -111.21,0.38 0,0 -0.38,-315.03 -0.38,-315.03 0,0 0.76,0 0.76,0 0,0 0,-0.38 0,-0.38 0,0 388.79,0 388.79,0 12.14,0 18.21,-6.2 18.21,-18.59 0,0 0,-55.55 0,-55.55 0,-11.64 -6.07,-17.71 -18.21,-18.21 0,0 -389.55,0 -389.55,0 0,0 0.38,-111.22 0.38,-111.22 0,0 407.76,0 407.76,0 73.64,0 110.58,36.95 110.84,110.84 0,0 0.38,0 0.38,0 0,0 0,92.35 0,92.35 0,25.17 -12.4,43.9 -37.08,55.91 24.68,12.65 37.08,31.01 37.08,55.3 0,0 0.25,0 0.25,0 0,0 -0.25,204.58 -0.25,204.58 0,0 -111.22,0 -111.22,0 0,0 0,-186.11 0,-186.11 0,-11.39 -6.2,-17.22 -18.59,-17.71 0,0 -277.96,0 -277.96,0 0,0 0,203.44 0,203.44z"/>
  <path class="fil0 str0" d="M9577.75 14354.63c0,0 0,-111.22 0,-111.22 0,0 445.21,0 445.21,0 0,0 -0.38,111.22 -0.38,111.22 0,0 -444.83,0 -444.83,0z"/>
  <path class="fil0 str0" d="M9688.95 14558.57c0,0 0,74.14 0,74.14 0,12.27 6.2,18.47 18.47,18.47 0,0 315.54,-0.38 315.54,-0.38 0,0 -0.38,111.59 -0.38,111.59 0,0 -333.63,0.38 -333.63,0.38 -74.13,0 -111.2,-37.07 -111.2,-111.21 0,0 -0.38,-204.2 -0.38,-204.2 0,0 445.21,0 445.21,0 0,0 0,111.21 0,111.21 0,0 -333.63,0 -333.63,0z"/>
  <path class="fil0 str0" d="M10245 14762.01c0,0 -111.21,0.38 -111.21,0.38 0,0 0,-315.03 0,-315.03 0,0 407.76,0 407.76,0 0,0 0,-92.73 0,-92.73 0,0 -408.14,0 -408.14,0 0.25,-74.14 37.45,-111.22 111.59,-111.22 0,0 296.55,0 296.55,0 73.64,0 110.58,36.95 110.84,110.84 0,0 0.38,0 0.38,0 0,0 0,408.14 0,408.14 0,0 -111.22,0 -111.22,0 0,0 0,-203.82 0,-203.82 0,0 -296.55,0 -296.55,0 0,0 0,203.44 0,203.44z"/>
  <path class="fil0 str0" d="M10763.85 14354.63c0,0 0,-111.22 0,-111.22 0,0 445.21,0 445.21,0 0,0 -0.38,111.22 -0.38,111.22 0,0 -444.83,0 -444.83,0z"/>
  <path class="fil0 str0" d="M11042.56 14446.98c0,0 -0.38,315.41 -0.38,315.41 0,0 -111.21,-0.38 -111.21,-0.38 0,0 -0.38,-315.03 -0.38,-315.03 0,0 111.97,0 111.97,0z"/>
  <path class="fil0 str0" d="M12274.72 14762.01c0,0 -111.2,0.38 -111.2,0.38 0,0 -0.38,-315.03 -0.38,-315.03 0,0 0.76,0 0.76,0 0,0 0,-0.38 0,-0.38 0,0 388.79,0 388.79,0 12.14,0 18.21,-6.2 18.21,-18.59 0,0 0,-55.55 0,-55.55 0,-11.64 -6.07,-17.71 -18.21,-18.21 0,0 -389.55,0 -389.55,0 0,0 0.38,-111.22 0.38,-111.22 0,0 407.76,0 407.76,0 73.63,0 110.57,36.95 110.83,110.84 0,0 0.38,0 0.38,0 0,0 0,92.35 0,92.35 0,25.17 -12.4,43.9 -37.08,55.91 24.68,12.65 37.08,31.01 37.08,55.3 0,0 0.25,0 0.25,0 0,0 -0.25,204.58 -0.25,204.58 0,0 -111.21,0 -111.21,0 0,0 0,-186.11 0,-186.11 0,-11.39 -6.2,-17.22 -18.59,-17.71 0,0 -277.97,0 -277.97,0 0,0 0,203.44 0,203.44z"/>
 </g>
</svg>
