<?xml version="1.0" encoding="UTF-8" standalone="no"?>
<svg
   width="260px"
   height="60px"
   viewBox="0 0 260 60"
   version="1.1"
   id="svg15"
   sodipodi:docname="LOGOink.svg"
   inkscape:version="1.4 (86a8ad7, 2024-10-11)"
   xmlns:inkscape="http://www.inkscape.org/namespaces/inkscape"
   xmlns:sodipodi="http://sodipodi.sourceforge.net/DTD/sodipodi-0.dtd"
   xmlns="http://www.w3.org/2000/svg"
   xmlns:svg="http://www.w3.org/2000/svg">
  <defs
     id="defs15" />
  <sodipodi:namedview
     id="namedview15"
     pagecolor="#ffffff"
     bordercolor="#000000"
     borderopacity="0.25"
     inkscape:showpageshadow="2"
     inkscape:pageopacity="0.0"
     inkscape:pagecheckerboard="0"
     inkscape:deskcolor="#d1d1d1"
     inkscape:zoom="19.820747"
     inkscape:cx="134.60643"
     inkscape:cy="36.905774"
     inkscape:window-width="1920"
     inkscape:window-height="1129"
     inkscape:window-x="1912"
     inkscape:window-y="-8"
     inkscape:window-maximized="1"
     inkscape:current-layer="" />
  <g
     id=""
     class="">
    <path
       class="fil0"
       d="M210 29c0,0 0,-16 0,-16 0,0 -14,-8 -14,-8 0,0 -5,3 -5,3 0,0 14,8 14,8 0,0 0,16 0,16 0,0 5,-3 5,-3z"
       id="path1" />
    <path
       class="fil0"
       d="M202 24c0,0 0,-7 0,-7 0,0 -14,-8 -14,-8 0,0 -13,8 -13,8 0,0 0,7 0,7 0,0 13,-8 13,-8 0,0 14,8 14,8z"
       id="path2" />
    <path
       class="fil0"
       d="M180 46c0,0 0,-16 0,-16 0,0 14,-8 14,-8 0,0 -6,-4 -6,-4 0,0 -13,8 -13,8 0,0 0,16 0,16 0,0 5,4 5,4z"
       id="path3" />
    <path
       class="fil0"
       d="M188 28c0,0 -5,3 -5,3 0,0 0,16 0,16 0,0 13,8 13,8 0,0 6,-3 6,-3 0,0 -14,-8 -14,-8 0,0 0,-16 0,-16z"
       id="path4" />
    <path
       class="fil0"
       d="M190 42c0,0 14,8 14,8 0,0 14,-8 14,-8 0,0 0,-6 0,-6 0,0 -14,8 -14,8 0,0 -14,-8 -14,-8 0,0 0,6 0,6z"
       id="path5" />
    <path
       class="fil0"
       d="M218 33c0,0 0,-16 0,-16 0,0 -5,-3 -5,-3 0,0 0,16 0,16 0,0 -14,8 -14,8 0,0 5,3 5,3 0,0 14,-8 14,-8z"
       id="path6" />
    <path
       class="fil0"
       d="M27 28c0,0 0,-4 0,-4 0,-1 0,-1 -1,-1 0,0 -22,0 -22,0 0,-4 2,-7 6,-7 0,0 17,0 17,0 5,0 7,3 7,7 0,0 0,5 0,5 0,0 -7,0 -7,0z"
       id="path7" />
    <path
       class="fil0"
       d="M34 34c0,0 0,6 0,6 0,4 -2,6 -7,6 0,0 -17,0 -17,0 -4,0 -6,-2 -6,-6 0,0 0,-12 0,-12 0,0 6,0 6,0 0,0 0,11 0,11 0,0 1,1 1,1 0,0 15,0 15,0 1,0 1,-1 1,-1 0,0 0,-5 0,-5 0,0 7,0 7,0z"
       id="path8" />
    <path
       class="fil0"
       d="M46 46c0,0 -6,0 -6,0 0,0 0,-18 0,-18 0,0 0,0 0,0 0,0 0,0 0,0 0,0 22,0 22,0 1,0 1,0 1,-1 0,0 0,-3 0,-3 0,-1 0,-1 -1,-1 0,0 -22,0 -22,0 0,0 0,-7 0,-7 0,0 23,0 23,0 5,0 7,3 7,7 0,0 0,0 0,0 0,0 0,5 0,5 0,1 -1,2 -2,3 1,1 2,2 2,3 0,0 0,0 0,0 0,0 0,12 0,12 0,0 -7,0 -7,0 0,0 0,-11 0,-11 0,0 0,-1 -1,-1 0,0 -16,0 -16,0 0,0 0,12 0,12z"
       id="path9" />
    <path
       class="fil0"
       d="M76 23c0,0 0,-7 0,-7 0,0 26,0 26,0 0,0 -1,7 -1,7 0,0 -25,0 -25,0z"
       id="path10" />
    <path
       class="fil0"
       d="M82 34c0,0 0,5 0,5 0,0 1,1 1,1 0,0 19,0 19,0 0,0 -1,6 -1,6 0,0 -19,0 -19,0 -4,0 -6,-2 -6,-6 0,0 0,-12 0,-12 0,0 25,0 25,0 0,0 0,6 0,6 0,0 -19,0 -19,0z"
       id="path11" />
    <path
       class="fil0"
       d="m 114,46 h -6 V 28 l 22.8991,-0.100904 v -5 L 108,23 c 0,-4 2,-7 6,-7 h 17 c 6.82532,0 6.8991,6.899096 6.8991,6.899096 L 138,46 h -7 L 130.8991,33.899096 114,34 Z"
       id="path12"
       inkscape:label="a"
       sodipodi:nodetypes="ccccccsscccccc" />
    <path
       class="fil0"
       d="M144 23c0,0 0,-7 0,-7 0,0 25,0 25,0 0,0 0,7 0,7 0,0 -25,0 -25,0z"
       id="path13"
       inkscape:label="t" />
    <path
       class="fil0"
       d="M160 28c0,0 0,18 0,18 0,0 -7,0 -7,0 0,0 0,-18 0,-18 0,0 7,0 7,0z"
       id="path14"
       inkscape:label="t" />
    <path
       class="fil0"
       d="M230 46c0,0 -6,0 -6,0 0,0 0,-18 0,-18 0,0 0,0 0,0 0,0 0,0 0,0 0,0 22,0 22,0 1,0 1,0 1,-1 0,0 0,-3 0,-3 0,-1 0,-1 -1,-1 0,0 -22,0 -22,0 0,0 0,-7 0,-7 0,0 23,0 23,0 4,0 7,3 7,7 0,0 0,0 0,0 0,0 0,5 0,5 0,1 -1,2 -3,3 2,1 3,2 3,3 0,0 0,0 0,0 0,0 0,12 0,12 0,0 -7,0 -7,0 0,0 0,-11 0,-11 0,0 0,-1 -1,-1 0,0 -16,0 -16,0 0,0 0,12 0,12z"
       id="path15"
       inkscape:label="r" />
  </g>
</svg>
