<svg
   width="210"
   height="290"
   viewBox="0 0 21000 29700"
   id="svg15"
   xmlns="http://www.w3.org/2000/svg">
  <g
     id="logo"
     class="logo"
     transform="matrix(4.9129019,0,0,4.9129019,-41068.69,-68964.391)"
     >
    <path
       d="m 11924.57,14459.48 c 0,0 0,-279.74 0,-279.74 0,0 -242.2,-139.88 -242.2,-139.88 0,0 -98.06,56.55 -98.06,56.55 0,0 242.32,139.88 242.32,139.88 0,0 0,279.84 0,279.84 z"
       id="path1" />
    <path
       class="fil0 str0"
       d="m 11786.35,14372.77 c 0,0 0,-113.22 0,-113.22 0,0 -242.33,-139.87 -242.33,-139.87 0,0 -242.32,139.87 -242.32,139.87 0,0 0,113.22 0,113.22 0,0 242.32,-139.87 242.32,-139.87 z"
       id="path2" />
    <path
       class="fil0 str0"
       d="m 11399.76,14755.59 c 0,0 0,-279.75 0,-279.75 0,0 242.33,-139.98 242.33,-139.98 0,0 -98.07,-56.56 -98.07,-56.56 0,0 -242.32,139.88 -242.32,139.88 0,0 0,279.85 0,279.85 z"
       id="path3" />
    <path
       class="fil0 str0"
       d="m 11538.11,14442.42 c 0,0 -98.07,56.56 -98.07,56.56 0,0 0,279.87 0,279.87 0,0 242.33,139.86 242.33,139.86 0,0 97.95,-56.55 97.95,-56.55 0,0 -242.21,-139.99 -242.21,-139.99 0,0 0,-279.75 0,-279.75 z"
       id="path4" />
    <path
       class="fil0 str0"
       d="m 11578.26,14699.04 c 0,0 242.33,139.87 242.33,139.87 0,0 242.33,-139.87 242.33,-139.87 0,0 0,-113.22 0,-113.22 0,0 -242.33,139.87 -242.33,139.87 0,0 -242.33,-139.87 -242.33,-139.87 z"
       id="path5" />
    <path
       class="fil0 str0"
       d="m 12062.92,14539.29 c 0,0 0,-279.74 0,-279.74 0,0 -98.07,-56.66 -98.07,-56.66 0,0 0,279.85 0,279.85 0,0 -242.33,139.88 -242.33,139.88 0,0 98.07,56.66 98.07,56.66 z"
       id="path6" />
    <path
       class="fil0 str0"
       d="m 8725.02,14447.36 c 0,0 0,-74.52 0,-74.52 0,-11.64 -6.07,-17.71 -18.21,-18.21 0,0 -389.55,0 -389.55,0 0.25,-74.14 37.45,-111.22 111.58,-111.22 0,0 296.56,0 296.56,0 73.89,0 110.84,37.2 110.84,111.6 0,0 0,92.35 0,92.35 0,0 -111.22,0 -111.22,0 z"
       id="path7" />
    <path
       class="fil0 str0"
       d="m 8836.62,14558.57 c 0,0 0,92.23 0,92.23 -0.26,74.39 -37.33,111.59 -111.22,111.59 0,0 -296.56,0.38 -296.56,0.38 -74.13,0 -111.2,-37.07 -111.2,-111.21 0,0 -0.38,-204.2 -0.38,-204.2 0,0 111.2,0 111.2,0 0,0 0.38,185.35 0.38,185.35 0,12.27 6.07,18.47 18.09,18.47 0,0 259.88,0 259.88,0 12.14,0 18.21,-6.2 18.21,-18.47 0,0 0,-74.14 0,-74.14 z"
       id="path8" />
    <path
       class="fil0 str0"
       d="m 9058.9,14762.01 c 0,0 -111.21,0.38 -111.21,0.38 0,0 -0.38,-315.03 -0.38,-315.03 0,0 0.76,0 0.76,0 0,0 0,-0.38 0,-0.38 0,0 388.79,0 388.79,0 12.14,0 18.21,-6.2 18.21,-18.59 0,0 0,-55.55 0,-55.55 0,-11.64 -6.07,-17.71 -18.21,-18.21 0,0 -389.55,0 -389.55,0 0,0 0.38,-111.22 0.38,-111.22 0,0 407.76,0 407.76,0 73.64,0 110.58,36.95 110.84,110.84 0,0 0.38,0 0.38,0 0,0 0,92.35 0,92.35 0,25.17 -12.4,43.9 -37.08,55.91 24.68,12.65 37.08,31.01 37.08,55.3 0,0 0.25,0 0.25,0 0,0 -0.25,204.58 -0.25,204.58 0,0 -111.22,0 -111.22,0 0,0 0,-186.11 0,-186.11 0,-11.39 -6.2,-17.22 -18.59,-17.71 0,0 -277.96,0 -277.96,0 0,0 0,203.44 0,203.44 z"
       id="path9" />
    <path
       class="fil0 str0"
       d="m 9577.75,14354.63 c 0,0 0,-111.22 0,-111.22 0,0 445.21,0 445.21,0 0,0 -0.38,111.22 -0.38,111.22 z"
       id="path10" />
    <path
       class="fil0 str0"
       d="m 9688.95,14558.57 c 0,0 0,74.14 0,74.14 0,12.27 6.2,18.47 18.47,18.47 0,0 315.54,-0.38 315.54,-0.38 0,0 -0.38,111.59 -0.38,111.59 0,0 -333.63,0.38 -333.63,0.38 -74.13,0 -111.2,-37.07 -111.2,-111.21 0,0 -0.38,-204.2 -0.38,-204.2 0,0 445.21,0 445.21,0 0,0 0,111.21 0,111.21 0,0 -333.63,0 -333.63,0 z"
       id="path11" />
    <path
       class="fil0 str0"
       d="m 10245,14762.01 c 0,0 -111.21,0.38 -111.21,0.38 0,0 0,-315.03 0,-315.03 0,0 407.76,0 407.76,0 0,0 0,-92.73 0,-92.73 0,0 -408.14,0 -408.14,0 0.25,-74.14 37.45,-111.22 111.59,-111.22 0,0 296.55,0 296.55,0 73.64,0 110.58,36.95 110.84,110.84 0,0 0.38,0 0.38,0 0,0 0,408.14 0,408.14 0,0 -111.22,0 -111.22,0 0,0 0,-203.82 0,-203.82 0,0 -296.55,0 -296.55,0 0,0 0,203.44 0,203.44 z"
       id="path12" />
    <path
       class="fil0 str0"
       d="m 10763.85,14354.63 c 0,0 0,-111.22 0,-111.22 0,0 445.21,0 445.21,0 0,0 -0.38,111.22 -0.38,111.22 z"
       id="path13" />
    <path
       class="fil0 str0"
       d="m 11042.56,14446.98 c 0,0 -0.38,315.41 -0.38,315.41 0,0 -111.21,-0.38 -111.21,-0.38 0,0 -0.38,-315.03 -0.38,-315.03 0,0 111.97,0 111.97,0 z"
       id="path14" />
    <path
       class="fil0 str0"
       d="m 12274.72,14762.01 c 0,0 -111.2,0.38 -111.2,0.38 0,0 -0.38,-315.03 -0.38,-315.03 0,0 0.76,0 0.76,0 0,0 0,-0.38 0,-0.38 0,0 388.79,0 388.79,0 12.14,0 18.21,-6.2 18.21,-18.59 0,0 0,-55.55 0,-55.55 0,-11.64 -6.07,-17.71 -18.21,-18.21 0,0 -389.55,0 -389.55,0 0,0 0.38,-111.22 0.38,-111.22 0,0 407.76,0 407.76,0 73.63,0 110.57,36.95 110.83,110.84 0,0 0.38,0 0.38,0 0,0 0,92.35 0,92.35 0,25.17 -12.4,43.9 -37.08,55.91 24.68,12.65 37.08,31.01 37.08,55.3 0,0 0.25,0 0.25,0 0,0 -0.25,204.58 -0.25,204.58 0,0 -111.21,0 -111.21,0 0,0 0,-186.11 0,-186.11 0,-11.39 -6.2,-17.22 -18.59,-17.71 0,0 -277.97,0 -277.97,0 0,0 0,203.44 0,203.44 z"
       id="path15" />
  </g>
</svg>
