<svg width="4371" height="890" viewPort="0 0 1000 1000" xmlns="http://www.w3.org/2000/svg">

    <g id="logo"> 
        <path id="svg_1" fill="none" stroke-miterlimit="22.9256" stroke-linejoin="bevel" stroke-width="9" stroke="black"
            d="m3607.31,419.62c0,0 0,-279.74 0,-279.74c0,0 -242.2,-139.88 -242.2,-139.88c0,0 -98.06,56.55 -98.06,56.55c0,0 242.32,139.88 242.32,139.88c0,0 0,279.84 0,279.84c0,0 97.94,-56.65 97.94,-56.65z"
            class="fil0 str0" />
        <path id="svg_2" fill="none" stroke-miterlimit="22.9256" stroke-linejoin="bevel" stroke-width="9" stroke="black"
            d="m3469.09,332.91c0,0 0,-113.22 0,-113.22c0,0 -242.33,-139.87 -242.33,-139.87c0,0 -242.32,139.87 -242.32,139.87c0,0 0,113.22 0,113.22c0,0 242.32,-139.87 242.32,-139.87c0,0 242.33,139.87 242.33,139.87z"
            class="fil0 str0" />
        <path id="svg_3" fill="none" stroke-miterlimit="22.9256" stroke-linejoin="bevel" stroke-width="9" stroke="black"
            d="m3082.5,715.73c0,0 0,-279.75 0,-279.75c0,0 242.33,-139.98 242.33,-139.98c0,0 -98.07,-56.56 -98.07,-56.56c0,0 -242.32,139.88 -242.32,139.88c0,0 0,279.85 0,279.85c0,0 98.06,56.56 98.06,56.56z"
            class="fil0 str0" />
        <path id="svg_4" fill="none" stroke-miterlimit="22.9256" stroke-linejoin="bevel" stroke-width="9" stroke="black"
            d="m3220.85,402.56c0,0 -98.07,56.56 -98.07,56.56c0,0 0,279.87 0,279.87c0,0 242.33,139.86 242.33,139.86c0,0 97.95,-56.55 97.95,-56.55c0,0 -242.21,-139.99 -242.21,-139.99c0,0 0,-279.75 0,-279.75z"
            class="fil0 str0" />
        <path id="svg_5" fill="none" stroke-miterlimit="22.9256" stroke-linejoin="bevel" stroke-width="9" stroke="black"
            d="m3261,659.18c0,0 242.33,139.87 242.33,139.87c0,0 242.33,-139.87 242.33,-139.87c0,0 0,-113.22 0,-113.22c0,0 -242.33,139.87 -242.33,139.87c0,0 -242.33,-139.87 -242.33,-139.87c0,0 0,113.22 0,113.22z"
            class="fil0 str0" />
        <path id="svg_6" fill="none" stroke-miterlimit="22.9256" stroke-linejoin="bevel" stroke-width="9" stroke="black"
            d="m3745.66,499.43c0,0 0,-279.74 0,-279.74c0,0 -98.07,-56.66 -98.07,-56.66c0,0 0,279.85 0,279.85c0,0 -242.33,139.88 -242.33,139.88c0,0 98.07,56.66 98.07,56.66c0,0 242.33,-139.99 242.33,-139.99z"
            class="fil0 str0" />
        <path id="svg_7" fill="none" stroke-miterlimit="22.9256" stroke-linejoin="bevel" stroke-width="9" stroke="black"
            d="m407.76,407.5c0,0 0,-74.52 0,-74.52c0,-11.64 -6.07,-17.71 -18.21,-18.21c0,0 -389.55,0 -389.55,0c0.25,-74.14 37.45,-111.22 111.58,-111.22c0,0 296.56,0 296.56,0c73.89,0 110.84,37.2 110.84,111.6c0,0 0,92.35 0,92.35c0,0 -111.22,0 -111.22,0z"
            class="fil0 str0" />
        <path id="svg_8" fill="none" stroke-miterlimit="22.9256" stroke-linejoin="bevel" stroke-width="9" stroke="black"
            d="m519.36,518.71c0,0 0,92.23 0,92.23c-0.26,74.39 -37.33,111.59 -111.22,111.59c0,0 -296.56,0.38 -296.56,0.38c-74.13,0 -111.2,-37.07 -111.2,-111.21c0,0 -0.38,-204.2 -0.38,-204.2c0,0 111.2,0 111.2,0c0,0 0.38,185.35 0.38,185.35c0,12.27 6.07,18.47 18.09,18.47c0,0 259.88,0 259.88,0c12.14,0 18.21,-6.2 18.21,-18.47c0,0 0,-74.14 0,-74.14c0,0 111.6,0 111.6,0z"
            class="fil0 str0" />
        <path id="svg_9" fill="none" stroke-miterlimit="22.9256" stroke-linejoin="bevel" stroke-width="9" stroke="black"
            d="m741.64,722.15c0,0 -111.21,0.38 -111.21,0.38c0,0 -0.38,-315.03 -0.38,-315.03c0,0 0.76,0 0.76,0c0,0 0,-0.38 0,-0.38c0,0 388.79,0 388.79,0c12.14,0 18.21,-6.2 18.21,-18.59c0,0 0,-55.55 0,-55.55c0,-11.64 -6.07,-17.71 -18.21,-18.21c0,0 -389.55,0 -389.55,0c0,0 0.38,-111.22 0.38,-111.22c0,0 407.76,0 407.76,0c73.64,0 110.58,36.95 110.84,110.84c0,0 0.38,0 0.38,0c0,0 0,92.35 0,92.35c0,25.17 -12.4,43.9 -37.08,55.91c24.68,12.65 37.08,31.01 37.08,55.3c0,0 0.25,0 0.25,0c0,0 -0.25,204.58 -0.25,204.58c0,0 -111.22,0 -111.22,0c0,0 0,-186.11 0,-186.11c0,-11.39 -6.2,-17.22 -18.59,-17.71c0,0 -277.96,0 -277.96,0c0,0 0,203.44 0,203.44z"
            class="fil0 str0" />
        <path id="svg_10" fill="none" stroke-miterlimit="22.9256" stroke-linejoin="bevel" stroke-width="9"
            stroke="black"
            d="m1260.49,314.77c0,0 0,-111.22 0,-111.22c0,0 445.21,0 445.21,0c0,0 -0.38,111.22 -0.38,111.22c0,0 -444.83,0 -444.83,0z"
            class="fil0 str0" />
        <path id="svg_11" fill="none" stroke-miterlimit="22.9256" stroke-linejoin="bevel" stroke-width="9"
            stroke="black"
            d="m1371.69,518.71c0,0 0,74.14 0,74.14c0,12.27 6.2,18.47 18.47,18.47c0,0 315.54,-0.38 315.54,-0.38c0,0 -0.38,111.59 -0.38,111.59c0,0 -333.63,0.38 -333.63,0.38c-74.13,0 -111.2,-37.07 -111.2,-111.21c0,0 -0.38,-204.2 -0.38,-204.2c0,0 445.21,0 445.21,0c0,0 0,111.21 0,111.21c0,0 -333.63,0 -333.63,0z"
            class="fil0 str0" />
        <path id="svg_12" fill="none" stroke-miterlimit="22.9256" stroke-linejoin="bevel" stroke-width="9"
            stroke="black"
            d="m1927.74,722.15c0,0 -111.21,0.38 -111.21,0.38c0,0 0,-315.03 0,-315.03c0,0 407.76,0 407.76,0c0,0 0,-92.73 0,-92.73c0,0 -408.14,0 -408.14,0c0.25,-74.14 37.45,-111.22 111.59,-111.22c0,0 296.55,0 296.55,0c73.64,0 110.58,36.95 110.84,110.84c0,0 0.38,0 0.38,0c0,0 0,408.14 0,408.14c0,0 -111.22,0 -111.22,0c0,0 0,-203.82 0,-203.82c0,0 -296.55,0 -296.55,0c0,0 0,203.44 0,203.44z"
            class="fil0 str0" />
        <path id="svg_13" fill="none" stroke-miterlimit="22.9256" stroke-linejoin="bevel" stroke-width="9"
            stroke="black"
            d="m2446.59,314.77c0,0 0,-111.22 0,-111.22c0,0 445.21,0 445.21,0c0,0 -0.38,111.22 -0.38,111.22c0,0 -444.83,0 -444.83,0z"
            class="fil0 str0" />
        <path id="svg_14" fill="none" stroke-miterlimit="22.9256" stroke-linejoin="bevel" stroke-width="9"
            stroke="black"
            d="m2725.3,407.12c0,0 -0.38,315.41 -0.38,315.41c0,0 -111.21,-0.38 -111.21,-0.38c0,0 -0.38,-315.03 -0.38,-315.03c0,0 111.97,0 111.97,0z"
            class="fil0 str0" />
        <path id="svg_15" fill="none" stroke-miterlimit="22.9256" stroke-linejoin="bevel" stroke-width="9"
            stroke="black"
            d="m3957.46,722.15c0,0 -111.2,0.38 -111.2,0.38c0,0 -0.38,-315.03 -0.38,-315.03c0,0 0.76,0 0.76,0c0,0 0,-0.38 0,-0.38c0,0 388.79,0 388.79,0c12.14,0 18.21,-6.2 18.21,-18.59c0,0 0,-55.55 0,-55.55c0,-11.64 -6.07,-17.71 -18.21,-18.21c0,0 -389.55,0 -389.55,0c0,0 0.38,-111.22 0.38,-111.22c0,0 407.76,0 407.76,0c73.63,0 110.57,36.95 110.83,110.84c0,0 0.38,0 0.38,0c0,0 0,92.35 0,92.35c0,25.17 -12.4,43.9 -37.08,55.91c24.68,12.65 37.08,31.01 37.08,55.3c0,0 0.25,0 0.25,0c0,0 -0.25,204.58 -0.25,204.58c0,0 -111.21,0 -111.21,0c0,0 0,-186.11 0,-186.11c0,-11.39 -6.2,-17.22 -18.59,-17.71c0,0 -277.97,0 -277.97,0c0,0 0,203.44 0,203.44z"
            class="fil0 str0" />
    </g>
</svg>